<svg version="1.2" xmlns="http://www.w3.org/2000/svg" viewBox="0 0 1080 1080" width="1080" height="1080">
	<title>New Project</title>
	<style>
		.s0 { fill: #ffffff } 
	</style>
	<path id="Shayari Page" class="s0" aria-label="Shayari Page"  d="m411.1 1016.4q-1.5 0-2.5-0.3-1.5-0.4-2.2-1.2-0.6-0.7-0.6-2 0-2.1 2.3-4.5 2.4-2.3 7.3-5.1 2-1.1 3.8-2.1 1.9-0.9 3.1-1.4 0.2-0.1 0.3-0.1 0 0 0 0.1 0 0 0 0.1-0.1 0.1-0.1 0.1 0 0 0.1 0 0 0 0.2 0 1.5-0.7 5.4-1.9 3.1-0.9 4.9-1h1.3q1.1 0 1.8 0.2 0.2 0 0.2 0.1 0 0.1-1.6 0.1-5.6 0-14.5 4.4-0.7 0.4-0.7 0.5h0.1q0.2 0 1.2-0.5 2.7-1.4 6.5-2.6 2.8-0.9 3.5-0.9 0.2 0 0.2 0 0 0.1-0.2 0.2-0.2 0.1-0.3 0.1-0.3 0-0.6 0.2-0.3 0.3-2.6 1.1-2.1 0.7-3.7 1.4-1.6 0.8-1.6 1 0 0.1 0.1 0.1 0.1 0 0.3-0.1 0.2-0.1 0.2-0.1 0.1 0 0.2 0 0 0 0 0 0 0.1-0.7 0.5-5.5 2.9-9.2 5.8-2.8 2.3-3.1 2.9l-0.1 0.1q0 0 0.1 0 0.1 0 0.8-0.6 2.8-2.7 7.2-5 1.3-0.7 1.5-0.7 0 0.1-3.3 2.3-1.2 0.8-2.4 1.8-1.2 0.9-1.8 1.4l-1.3 1.3 1.9-0.1q3.3-0.2 10.4-1.9 8.7-2.2 15.5-4.7 6.8-2.4 11-5 4.3-2.5 5.5-4.8 0.4-0.7 0.4-1.3 0-0.9-0.8-1.3-1.8-1-8-1-3.2 0-7.4 0.4-5.6 0.5-15.4 1.8-12.3 1.7-18.2 2.4-5.9 0.6-9.7 0.6h-0.6q-2.7 0-4.2-0.3-1.6-0.2-2.7-0.8-0.7-0.3-1.4-1-0.6-0.6-0.8-1.2-0.2-0.6-0.2-1.3 0-2 1.4-4.1 2.5-3.5 9.5-8.9 7-5.3 16.5-11.1 9.4-5.7 19.2-10.5 5.1-2.5 8.3-3.8 3.2-1.4 6.9-2.6 4.6-1.5 7.6-1.5 3.9 0 4.9 2.7 0.4 0.9 0.4 2.1 0 1.1-0.3 2.4-0.7 2.7-2.6 5.5-0.8 1.2-1.8 2.4-1 1.3-1.7 2.1-0.8 0.8-1 0.8-0.2 0-0.9 0.7-0.8 0.8-0.9 0.8 0 0 0 0 0-0.2 1.2-1.6 1-1.1 1.6-1.8 0.6-0.8 0.6-1 0 0-0.1 0-0.1 0-0.8 0.8-0.3 0.2-0.3 0.2 0-0.1 0.7-1.1 2.6-3.4 3.4-5.3 0.4-0.9 0.4-1-0.1 0-0.7 1.2-0.6 1.1-1.3 2.3-0.8 1.2-2.8 3.6-0.9 1-1 1 0 0 0 0 0 0 0.2-0.3 2.8-3.7 3.7-5.1 0.4-0.8 0.9-1.8 0.4-0.9 0.6-1.5 0.2-0.5 0.3-1 0-0.5 0-1.3 0-2.6-0.5-2.6-0.1 0-0.3 0.1-0.1 0.1-0.2 0.1-0.1 0-0.2-0.1 0-0.1-0.2-0.1 0 0-0.1 0 0 0-0.1 0-0.1 0-0.3-0.1-0.2-0.1-0.4-0.1-0.2 0-0.6 0.1-1.1 0.3-2.1 0.6-2 0.5-3.3 1.1-0.5 0.2-0.5 0.3 0 0.1-1.5 0.7-7 2.7-16.3 7.3-9.2 4.7-15.3 8.6-1.6 1-2.6 1.5-2.3 1.2-6.8 4.3-9.8 6.7-14.2 11.2-2.3 2.4-2.3 3.3 0.3 0.9 4.6 0.9 5.5 0 16.3-1.4l13.4-1.8q7.9-1.1 15.4-1.8 2.8-0.2 6.3-0.2 4.5 0 6.6 0.3 2.5 0.5 3.9 1.2 1.8 1 2.5 2.9 0.1 0.4 0.2 0.8 0 0.5 0 1.3 0 1 0 1.4-0.1 0.5-0.3 1-0.1 0.5-0.6 1.3-0.3 0.7-0.6 1.1-0.2 0.5-0.3 0.5-0.1 0-1.3 1.1-1.7 1.6-5.1 3.6-3.4 2-6.6 3.3-1.6 0.7-2.1 1-0.4 0.2-1 0.3-0.4 0.1-3.7 1.3-4.8 1.7-14 4.2-2.9 0.8-6.7 1.4-3.8 0.6-6 0.6zm-1.1-3.6q0 0 0 0 0-0.1-0.2-0.4-0.1-0.3-0.2-0.3-0.1 0.1-0.1 0.1 0 0.1 0.2 0.3 0.2 0.3 0.3 0.3zm-6.2-16.7h0.3q1.1-0.1 2.8-0.3 2.8-0.3 2.8-0.4 0-0.1-0.4-0.1-0.7 0-3.1 0.3-2.5 0.3-2.6 0.4 0 0 0 0.1 0 0 0.2 0zm8.7-1q0.2 0 0.2-0.1 0 0-0.2 0-0.3 0-0.3 0 0 0.1 0.3 0.1zm0.9 0q0.1 0 0.4-0.2 0.2-0.1 0.2-0.1 0-0.1-0.2-0.1-0.6 0-0.6 0.2 0 0.2 0.2 0.2zm2-0.4q0.2 0 0.2-0.1 0 0-0.2 0-0.1 0-0.2 0-0.1 0-0.1 0.1 0 0 0.3 0zm14.8-1.8q0.1 0 1.2-0.2 1.8-0.2 1.8-0.3 0 0-0.1 0-0.3 0-1.2 0.1-0.7 0-1.2 0.1-0.6 0.1-0.6 0.2 0 0.1 0.1 0.1zm5.4-0.6q0.2 0 0.4-0.1 0.4 0 1.5-0.1 4.9-0.4 4.9-0.5 0 0-0.4 0-1.1 0-3.6 0.2-3 0.3-3 0.4 0 0.1 0.2 0.1zm8.5-0.8q0.3 0 0.3 0 0-0.1-0.4-0.1-0.1 0-0.2 0-0.1 0.1-0.1 0.1 0 0 0.4 0zm2.1 0.1q0.3 0 0.3-0.1 0-0.1-0.2-0.1-0.1 0-0.2 0-0.1 0.1-0.1 0.1 0 0.1 0.2 0.1zm7.1-23.7v0.1q0.1 0 0.7-0.8 0.5-0.7 0.5-0.8-0.1 0-0.7 0.8-0.5 0.7-0.5 0.7zm-29.3 31.3q-0.1 0-0.1 0 0-0.1 0.5-0.3 0.5-0.2 0.7-0.2h0.1q0 0.1-0.5 0.3-0.5 0.2-0.7 0.2zm38.1 10.3q-0.4 0-0.9-0.2-1-0.3-1.3-1-0.4-0.7-0.4-1.9 0-1.7 0.9-5.8 0.9-4.5 2.9-12.2 2.1-7.8 3.8-13.6 1.7-5.6 3.7-11.5 2-5.9 3.5-10.1 1.6-4.1 1.9-4.2 0.1 0 0.2-0.1 0.1-0.2 0.2-0.5 0.3-0.6 0.4-0.6 0 0 0 0.1 0 0.2-0.1 0.6-0.1 0.3-0.2 0.6-0.1 0.3-0.2 0.7-0.1 0.2-0.1 0.4 0 0.1 0.1 0.1 0.1 0 0.1 0 0.2-0.1 0.2-0.1 0.1 0 0.1 0.1 0 0.2-0.5 1.6-0.4 1.3-0.4 1.5 0.1 0 0.8-2 0.7-1.9 0.8-1.9 0 0 0 0.1 0 0.1-0.1 0.4-0.1 0.5-0.3 1-1.2 3.2-1.4 6.9-0.1 1.2-0.3 2.1-0.2 0.8-0.3 1.9 0 0.9-0.4 2.4-0.4 1.2-2.1 6.6-1.8 5.5-2.2 7.3-0.5 2.1-0.9 3.2-0.6 1.8-1.1 3.5-0.4 1.7-1.3 5.3-1.3 5.1-1.5 6-0.2 0.4-0.2 0.6 0 0.1 0 0.1 0.2 0 2.5-4.1 2-3.6 3.9-6.4 1.8-2.9 2.8-4 0.7-0.7 1.6-1.2 0.8-0.5 1.4-0.5 0.5 0 1 0.5 0.5 0.6 0.8 1.4 0.1 0.6 0.1 2.8 0 4.2-0.2 6.5-0.2 1.1-0.3 5.6-0.1 2.8-0.1 3.9 0 0.7 0 0.7 0.2 0 0.4-0.4 0.2-0.3 1.1-1.3 0.8-0.9 2.5-3.5 1.6-2.4 1.8-2.4 0 0 0 0 0 0 0.1 0 0.1 0 0.9-1.3 0.7-1.4 1.2-2.1 0.4-0.7 0.5-0.7 0 0 0 0 0 0.5-1.7 3.6-0.6 1.3-1.2 2.3-1 1.8-1 1.9 0 0 0 0 0.2 0 2.1-3.2 1.1-1.7 1.1-1.7 0.1 0 0.1 0.3 0 0.6-1 2.5-0.8 1.5-0.8 1.8 0 0.1 0 0.1 0.2 0 0.3-0.2 0.1-0.2 0.2-0.2 0 0 0 0 0 0.2-0.5 1-0.7 1.5-1.9 3.4-1.3 2-2.3 3.2-0.9 1.1-0.9 1.2 0 0 0.5-0.5 0.9-0.9 2.6-3 1.9-2.5 2-2.5 0 0 0 0.1 0 0.1-0.3 0.8-1.4 2.5-3.3 4.6-1.9 2.1-3.3 2.5-0.4 0.1-0.8 0.1-1.3 0-1.9-0.9-0.6-0.8-0.7-1.4-0.1-0.5-0.1-3.1 0-5.2 0.2-9.5 0.2-2.9 0.2-3.8 0-0.3 0-0.4-0.1 0-1.2 1.8-1 1.7-2.5 4.3-1.4 2.5-2.8 5-2.4 4.5-3.5 6.4-1.1 1.8-1.4 2-0.8 0.6-1.6 0.6zm-0.1-0.6q0.9 0 1.6-0.9 0.4-0.4 0.4-0.5 0 0 0 0-0.1 0-0.5 0.4-0.7 0.8-1.5 0.8-0.4 0-0.7-0.2-0.9-0.4-0.9-2.5l-0.1-1.2q-0.1 0.4-0.2 0.8 0 0.4 0 0.8 0 0.7 0.2 1.3 0.5 0.8 1 1 0.5 0.2 0.7 0.2zm16.2-1.2q0.1 0 0.3-0.2 0.2-0.1 0.4-0.3 0.2-0.2 0.5-0.4-1.3 0.8-1.3 0.8 0 0.1 0.1 0.1zm-13.8-1.2q0.1 0 0.3-0.2 0.4-0.5 0.4-0.7 0-0.1 0-0.1-0.2 0-0.6 0.9-0.1 0.1-0.1 0.1 0 0 0 0zm1-1.4q0.1-0.1 0.2-0.3 0-0.1 0-0.2 0 0-0.1 0 0 0 0 0-0.1 0-0.2 0.1 0 0.1 0 0.2 0 0.2 0.1 0.2zm-5-1q0.1 0 0.1-0.2 0-0.1 0-0.2 0-0.1-0.1-0.1 0 0 0 0.2 0 0.3 0 0.3zm8.7-5.8v0.1q0.1 0 0.3-0.5 0.6-0.9 0.6-1.1 0 0 0 0-0.1 0-0.4 0.6-0.5 0.7-0.5 0.9zm14.6-1.9q0 0 0.6-0.7 0.5-0.8 0.5-1 0-0.1 0-0.1-0.1 0-0.2 0.2-0.1 0.1-0.3 0.4-0.1 0.2-0.3 0.5-0.2 0.3-0.3 0.5 0 0.2 0 0.2zm-13.3-0.4q0.2 0 1.1-1.6 1.1-1.8 1.2-2.1 0.2-0.3 0.2-0.4 0 0 0 0-0.1 0-1.3 2-1.2 1.9-1.2 2 0 0.1 0 0.1zm5.7-39.1q-0.1 0-0.1-0.1 0-0.1 0-0.1 0.1-0.1 0.1-0.2 0.1 0 0.1 0 0.1 0 0.1 0.2 0 0-0.1 0.1 0 0.1-0.1 0.1zm20.4 52.5q-0.8 0-1.5-0.4-0.7-0.5-1.1-1.1-0.5-0.7-0.7-2-0.2-1.2-0.2-2.5l0.1-1.6q0-0.8-0.1-0.8-0.1 0-0.5 0.6-0.4 0.7-1.4 1.7-0.9 1-1.6 1.4-1.1 0.7-2 0.7-1.9 0-2.8-2.1-0.4-1-0.4-2.3 0-1.5 0.4-3.4 0.9-3.7 2.6-7.6 2.3-4.8 5.1-7.1 1.4-1.2 3-1.2 1.3 0 2.5 0.7 1.1 0.7 1.1 0.9 0 0.1 0 0.1-0.2 0-0.4-0.2h-0.1q0 0 0.4 0.5 0.6 0.6 0.6 0.8 0 0-0.1 0-0.1 0-0.7-0.6-0.7-0.7-0.9-0.7-0.2 0-0.2 0.2 0 0.1 0.4 0.5l0.4 0.4-0.6-0.4q-1.2-0.8-2.2-0.8-0.3 0-0.5 0.1-0.2 0.1-0.2 0.1 0 0.1 0.6 0.1 1.5 0.1 2.2 1 0.2 0.1 0.2 0.1-0.1 0-0.5-0.2-0.8-0.6-1.6-0.6-0.3 0-0.7 0.1-0.4 0.1-0.8 0.5-0.4 0.4-0.6 0.7-0.2 0.4-0.2 0.6v0.1q0.1 0.1 0.1 0.2 0 0.1-0.1 0.1-0.2 0-0.6 1.3-0.1 0.5-0.2 1-0.1 0.4-1 2.3-1.1 2.3-2 5-0.4 1.2-0.4 1.6 0 0.5 0.2 0.5 0.5 0 1.6-2.2 0.6-1.2 2.2-5 0.7-1.5 1.2-2.7 0.6-1.1 0.8-1.4 0.4-0.4 1.2-0.4h0.2q1.3 0 1.6 1 0.2 0.5 0.2 1.5 0 1-0.2 2.5-0.9 9.1-0.9 11.7 0 0.9 0.1 1.1 0.2 0 0.9-0.8 0.7-0.9 1.5-2.1 0.8-1.2 1.2-2.1 0.4-0.9 1.1-1.9 0.6-1 1.4-2.6 0.7-1.5 0.8-1.5 0 0.2-0.3 0.6-0.3 0.7-0.3 0.8 0 0 0.1 0 0.1 0 0.6-1 0.2-0.5 0.4-1 0.6-1.3 0.9-1.8 0.1-0.2 0.2-0.2 0 0 0 0.1 0 0.2-0.7 2.3-0.7 2-0.9 2.5-0.1 0.2-0.1 0.3 0 0 0 0 0.1 0 1-1.7 0.6-1.4 0.8-1.4 0.1 0 0.1 0.3 0 0.5-0.3 1.4-0.3 0.8-0.3 1.1 0 0.1 0.1 0.1 0 0 0 0 0.1-0.1 0.1-0.1 0.1 0 0.1 0.2 0 0.3-0.4 1.7-0.8 2.2-1.2 3-0.1 0.3-0.1 0.4 0 0.1 0 0.1 0.1-0.1 0.3-0.5 0.3-0.3 0.5-0.8 0.3-0.5 0.5-0.9 0.3-0.5 0.5-0.8 0.2-0.3 0.4-0.6l-0.1 0.6q-0.1 0.6-0.7 1.8-0.6 1.3-1.4 2.7-0.7 1.3-1.3 2.3-2.6 3.7-4.4 4.6-1.1 0.5-2 0.5zm8 43.5q0 0 0 0 0-0.2 0.6-1.3 0.8-1.9 1.7-4.2 0.4-0.9 0.4-1.1-0.1 0-1.1 2-0.9 2.2-1.1 2.2-0.1 0-0.1-0.4 0-0.6 0.2-1 0.3-0.5 0.7-1.7 0.3-1.1 0.3-1.3v-0.1q-0.2 0-0.3 0.2-0.1 0.2-0.1 0.2-0.1 0-0.1 0 0.1-0.2 0.9-3.5 0.8-3.2 1-4.1 0.1-0.1 0.1-0.2 0 0-0.1 0-0.2 0-0.8 1.9-0.5 1.6-1 2.7-0.3 0.7-0.4 0.7 0.1-0.9 1.6-6 3.1-11.5 5.5-22.2 1.3-5.5 3.4-14 0.9-3.5 1.2-4.6 0 0 0 0-0.2 0-1 0.9-4 4.4-6.7 5.6-1.7 0.9-3.2 0.9-0.4 0-0.7-0.1-0.6-0.1-1.2-0.7-0.6-0.6-0.9-1.3-0.4-0.7-0.4-1.7 0-1 0-1.3 0-1.4 0.2-2.8 0.3-2.3 1.6-6.5 1.2-3.9 1.5-3.9 0 0 0.1 0 0 0.1 0 0.1 0.1 0 0.2-0.5 0.2-0.8 0.5-0.8 0 0 0 0.1 0 0 0 0.2-0.5 1.1-0.5 1.8 0 0.3 0.1 0.3 0.1 0 0.3-0.2 0-0.1 0-0.1 0.1 0 0.1 0.1 0 0.5-0.5 2-0.2 0.7-0.2 1.1 0 0.1 0 0.1 0.1 0 0.6-1.7 0.6-2.1 0.9-2.1 0 0 0 0.1 0 0 0 0.1-0.4 1-0.7 2.6-0.4 1.5-0.5 2.4-0.1 1-0.1 1.4 0 0.4 0.1 0.6 0.1 0.1 0.1 1.4l-0.1 1.6q0 1.2 0.2 1.2 0.1 0 0.1 0.3 0 0.1 0 0.3 0 0.2 0 0.3 0 0.5 0.2 0.8 0.2 0.2 0.3 0.2 0.2 0 0.8-0.4 0.9-0.6 2.4-2.1 1.6-1.5 2.5-2.6 1.1-1.3 2.1-2.5 1.8-2.3 4-5.8 2.2-3.4 3.1-5.3 0.2-0.5 0.4-0.9 0.3-0.4 0.4-0.4 0 0 0.8-0.3 0.8-0.3 1.1-0.3 0.8 0 1.2 0.6 0.6 0.8 0.6 1.5 0 0.6-0.5 1.8-0.3 0.5-0.4 0.6-0.2 0.3-1.1 2.6-0.8 2.3-1.8 5.5-2 6.2-4.6 16.9-1.5 6.2-2.4 10.8-0.6 2.5-0.9 3.8-0.6 2.4-1.6 6.7-0.4 2-0.9 3.5-0.7 1.9-2.1 7-0.3 1.3-1.5 4.2-1.2 3-1.4 3-0.2 0-1.2 2-1.1 2.2-1.6 2.8-0.3 0.3-0.3 0.3zm11-48.2q0.1 0 0.6-2 0.4-1.3 0.4-1.6 0 0-0.2 0.5-0.4 1.3-0.7 2.3-0.1 0.6-0.1 0.7 0 0.1 0 0.1zm1.2-4.6q0.1 0 0.3-0.5 0.2-0.6 0.2-0.8 0-0.1 0-0.1-0.1 0-0.3 0.5-0.2 0.5-0.2 0.8 0 0.1 0 0.1zm-9.8 49.5q0 0 0-0.1 0 0 0-0.2 0.1-0.1 0.2-0.2 0 0 0 0 0.1 0 0.1 0.1 0 0.1-0.2 0.2-0.1 0.2-0.1 0.2zm0.4-0.8q-0.1 0-0.1-0.2 0-0.1 0.1-0.2 0 0 0.1-0.1 0.1 0 0.1 0 0 0 0 0 0 0.1 0 0.2-0.1 0.3-0.2 0.3zm28.2-39.4q-0.9 0-1.6-0.4-0.7-0.5-1.1-1.1-0.4-0.7-0.6-2-0.2-1.2-0.2-2.5v-1.6q0-0.8 0-0.8-0.1 0-0.5 0.6-0.5 0.7-1.4 1.7-0.9 1-1.6 1.4-1.1 0.7-2 0.7-2 0-2.9-2.1-0.3-1-0.3-2.3 0-1.5 0.4-3.4 0.8-3.7 2.6-7.6 2.3-4.8 5.1-7.1 1.3-1.2 3-1.2 1.2 0 2.5 0.7 1.1 0.7 1.1 0.9 0 0.1-0.1 0.1-0.1 0-0.4-0.2 0 0 0.4 0.5 0.5 0.6 0.5 0.8 0 0 0 0-0.1 0-0.7-0.6-0.7-0.7-0.9-0.7-0.3 0-0.3 0.2 0 0.1 0.4 0.5l0.5 0.4-0.6-0.4q-1.2-0.8-2.2-0.8-0.3 0-0.5 0.1-0.2 0.1-0.2 0.1 0 0.1 0.6 0.1 1.5 0.1 2.2 1 0.1 0.1 0.1 0.1 0 0-0.4-0.2-0.8-0.6-1.6-0.6-0.3 0-0.7 0.1-0.4 0.1-0.8 0.5-0.4 0.4-0.6 0.7-0.2 0.4-0.2 0.6v0.1q0 0.1 0 0.2 0 0.1-0.1 0.1-0.1 0-0.5 1.3-0.2 0.5-0.2 1-0.1 0.4-1.1 2.3-1.1 2.3-2 5-0.4 1.2-0.4 1.6 0 0.5 0.3 0.5 0.5 0 1.6-2.2 0.6-1.2 2.2-5 0.6-1.5 1.2-2.7 0.6-1.1 0.8-1.4 0.4-0.4 1.2-0.4h0.2q1.2 0 1.6 1 0.2 0.5 0.2 1.5 0 1-0.2 2.5-1 9.1-1 11.7 0 0.9 0.1 1.1h0.1q0.2 0 0.9-0.8 0.7-0.9 1.5-2.1 0.8-1.2 1.2-2.1 0.4-0.9 1-1.9 0.7-1 1.4-2.6 0.7-1.5 0.8-1.5h0.1q0 0.2-0.3 0.6-0.3 0.7-0.3 0.8 0 0 0 0 0.1 0 0.7-1 0.2-0.5 0.4-1 0.5-1.3 0.8-1.8 0.2-0.2 0.2-0.2 0.1 0 0.1 0.1 0 0.2-0.7 2.3-0.7 2-0.9 2.5-0.1 0.2-0.1 0.3 0 0 0 0 0.1 0 0.9-1.7 0.7-1.4 0.9-1.4 0.1 0 0.1 0.3 0 0.5-0.4 1.4-0.3 0.8-0.3 1.1 0 0.1 0.1 0.1 0.1 0 0.1 0 0.1-0.1 0.1-0.1 0.1 0 0.1 0.2 0 0.3-0.5 1.7-0.7 2.2-1.1 3-0.2 0.3-0.2 0.4 0 0.1 0.1 0.1 0.1-0.1 0.3-0.5 0.2-0.3 0.5-0.8 0.2-0.5 0.5-0.9 0.3-0.5 0.5-0.8 0.2-0.3 0.4-0.6l-0.1 0.6q-0.2 0.6-0.8 1.8-0.5 1.3-1.3 2.7-0.7 1.3-1.4 2.3-2.5 3.7-4.4 4.6-1 0.5-1.9 0.5zm10.8-5.1q-3.4-0.1-4.1-0.1-0.5-0.1-0.5-0.4 0 0 0-0.2 0.1-0.4 0.2-3.4 0.1-2.8 0.5-6.1 0.3-3.2 0.3-6.5 0-3.9 0.2-3.9 0.1 0 0.2 0.3 0.3 0.3 0.4 0.3 0.1 0 0.1-0.1 0.1-0.2 0.2-0.2 0 0.1 0.1 0.2 0.4 1.3 0.4 1.3 0.1 0 0.1-0.2 0-0.4-0.2-1-0.1-0.3-0.1-0.5 0-0.1 0.1-0.1 0 0 0.2 0.3 0.1 0.3 0.2 0.7 0.3 1.3 0.6 1.3 0 0 0.1 0 0-0.1 0.2-0.4 0.2-0.4 0.5-1 1.3-2.8 3-2.8 0.9 0 1.8 0.7 0.6 0.4 1 1 0.4 0.5 1.1 1.8 0.8 1.6 1.7 2.6 0.8 1 1.3 1 0.3 0.1 0.5 0.4 0.1 0.2 0.2 0.2 0.1 0 0.2 0 0.2 0 0.5-0.1 1.1-0.2 1.4-0.2 0.2 0 0.2 0.1 0 0.1-0.6 0.3-1.1 0.5-2 0.6-0.1 0-0.1 0 0 0 0.6 0.1 0.7 0.1 0.9 0.1 0.1 0.1 0.1 0.2 0 0.2-0.3 0.3-0.3 0.1-0.7 0.2-0.7 0-0.7 0.3 0 0 0 0 0 0.1 0 0.1 0 0.2-0.6 0.2-0.6 0-1.5-0.3-0.8-0.3-1.5-0.8l-0.7-0.6q0.2 0.3 0.5 0.6 0.2 0.2 0.6 0.6 0.4 0.3 1.8 1.3-0.3-0.1-0.6-0.1-0.4-0.1-0.7-0.2-0.4-0.2-0.7-0.3-0.7-0.5-1.6-1.5-0.9-1-1.3-1.7-0.4-0.7-0.5-0.7-0.1 0-0.5 1.2-0.4 1.2-0.9 3.1-0.2 1.1-0.6 4.2-0.5 3.1-1 7.8zm0.5-9.1q0.1 0 0.1 0 0-0.1 0-0.1 0-0.1 0-0.1 0-0.1 0-0.2 0-0.1-0.1-0.1 0 0 0 0.2 0 0.3 0 0.3zm0.2-0.9q0.2 0 0.5-2.3-0.3 1.1-0.4 1.4-0.1 0.5-0.1 0.7 0 0.2 0 0.2zm10.3 13q-1.3 0-2.2-1.1-0.6-0.8-0.8-1.4-0.2-0.5-0.2-1.9 0-2 0.2-3.1 0.3-3.1 1.7-7.7 0.8-2.6 1.5-4.4 0.8-1.8 1-1.8h0.1q0.1 0 0.3-0.2 0.1-0.2 0.1-0.2 0.1 0 0.1 0.1v0.5q0 0.3 0.1 0.3h0.1q0.2 0 0.2 0.2 0 0.2-0.2 0.7-0.1 0.3-0.1 0.4 0 0 0 0 0 0 0.2-0.2 0.3-0.4 0.3-0.6 0-0.3 0.2-0.4 0.1-0.1 0.1-0.1 0 0 0 0.1 0 0.1 0 0.3-0.2 0.6-0.2 1 0 0.6 0.3 1.2 0.5 1.1 0.5 1.5v0.4q0 0.9-0.5 2.2-0.6 1.7-0.7 2.4 0 0.4-0.1 0.7-0.3 0.4-0.8 3.3-0.2 1.1-0.2 1.5 0 0.5 0.3 0.5 0.7 0 3.6-4.3l0.6-1.1q0.6-0.8 1-1.3 0.6-0.6 0.9-1.3 0.4-0.7 1.2-1.7 0.9-1.2 1-1.2 0 0.1-0.1 0.3 0 0.1 0 0.1 0 0.1 0 0.1 0.1 0 0.6-0.7 0.7-0.7 0.9-0.7 0 0 0 0 0 0.2-0.5 1.1-0.6 1-0.6 1.1 0 0.1 0 0.1 0.1 0 0.7-0.6 0.4-0.5 0.6-0.5 0.1 0 0.1 0.1 0 0.2-0.3 0.8-0.1 0.3-0.1 0.4 0 0.2 0.2 0.3 0.1 0.1 0.1 0.3 0 0.4-0.4 1.4-0.1 0.3-0.2 0.3-0.1 0.2-0.1 0.4 0 0.1 0 0.1 0.1 0 0.7-0.6 0.4-0.6 0.6-0.6 0.1 0 0.1 0.2 0 0.3-0.5 1.2-0.5 0.9-1.9 2.9-1.3 1.9-2.8 3.8-1.5 1.9-2.3 2.8-2.5 2.6-4.4 2.6zm1.1-0.7q0 0 0.2 0 0.1-0.1 0.2-0.2 0 0 0 0 0-0.1-0.1-0.1-0.1 0-0.2 0.1-0.2 0.2-0.2 0.2 0 0 0.1 0zm-2.3-0.3q0.1 0 0.1-0.1 0-0.1-0.5-0.4l-0.4-0.4q0.7 0.9 0.8 0.9zm3.1 0q0.3 0 1.2-0.9 0.5-0.5 0.5-0.5 0 0-0.2 0.1-0.7 0.5-1.2 0.9-0.3 0.2-0.3 0.3 0 0.1 0 0.1zm-4-1.1q0.1 0 0.1-0.1 0-0.1-0.2-0.5-0.2-0.4-0.3-0.4 0 0 0 0.1 0 0.2 0.1 0.4 0.1 0.2 0.2 0.4 0.1 0.1 0.1 0.1zm7.2-22.5q-0.4 0-0.5-0.2-0.1-0.3-0.4-0.3-0.1 0-0.4-0.1-0.3-0.1-0.5-0.3-0.7-0.5-1-0.5-0.3 0-0.4-0.3 0-0.3 0.6-1.6 0.6-1.5 0.8-1.5 0.1 0 0.5 0.2 0.4 0.3 1 0.6 0.5 0.3 1 0.5 0.4 0.3 0.7 0.5 0.2 0.1 0.4 0.3l-1.1 2.4q-0.2 0.3-0.7 0.3zm48.7 33.4h-0.1q-0.5 0-1.2-0.1-0.6-0.2-1.7-0.5l-1.1-0.3 1.1-4.1q2-7.8 2-15.5 0-0.4-0.1-0.5 0 0 0 0-0.6 0-3.2 0.5-2 0.3-3.3 0.4-1.3 0.2-3.5 0.2-5.9 0-9.1-1-3.2-1-4.5-3.4-0.3-0.5-0.5-1-0.1-0.5-0.1-1.6v-1.8l0.1 1.4q0.4 3.1 2.7 4.7 2.7 2 8.1 2 1.5 0 2.5-0.1l2-0.2h-3.3q-3.3-0.1-5.7-0.6-2.4-0.5-3.1-1.3-0.1-0.1-0.1-0.1 0-0.1 0-0.1 0.2 0 0.6 0.2 1.1 0.6 5.1 1.2 0.4 0 1.1 0 0.9 0 2.3-0.1 2.5-0.1 2.5-0.2v-0.1q0 0 0.2 0 0.1 0 0.3 0 0.1 0 0.2 0 0.1 0 0.1 0 0-0.1-0.1-0.1-0.2-0.1-0.2-0.2 0 0 0 0 0.5-0.1 4.3-0.9 3.9-0.8 4.2-0.9 0.6-0.2 0.6-0.4 0-0.2-0.4-0.2-0.2 0-0.5 0.1-1.6 0.2-2 0.2-0.1 0-0.1 0 0-0.1 2.8-0.8v-1.3q-0.2-2.5-1-5.1-0.7-2.6-1.9-4.3-1.5-2.4-3.6-3.6-2.1-1.2-5.3-1.6-0.8 0-1.7 0-4.5 0-11.3 1.7-3.3 0.9-4.8 1.1-1.6 0.3-2.5 0.3-1.9 0-2.8-1.2-0.5-0.7-0.5-1.7 0-0.7 0.2-1.5 0.7-2 2.8-4 1.3-1.3 3.2-2.7 0.8-0.6 0.9-0.6 0.1 0 1.5-0.9 1.5-0.8 4.9-2.5 8.6-4.1 21-7.8 12.4-3.6 23.9-5.4 4-0.6 6.4-0.8 2.5-0.2 6.5-0.2 3.7 0 5.6 0.1 2 0.1 2.8 0.4l2 0.6q2.5 0.7 4.4 2.2 1.9 1.4 2.7 3.1 0.6 1.5 0.7 2.6 0 1.1 0 1.4 0 1.7-0.4 3.2-0.3 0.7-1 2.1-0.7 1.4-1.4 2.6-1.5 2.3-4.7 5.5-3.2 3.2-6 5.2l-2.2 1.6q-1.7 1.3-2.8 2-0.6 0.3-2.1 1.3-2.9 1.8-8.1 4.1-5.1 2.2-11.3 4.4-4.8 1.6-5.7 1.9-0.5 0.1-0.8 0.2-0.2 0.1-0.3 0.4-0.2 0.2-0.3 0.6l-1 3.6q-1.6 5.7-2.3 8.6-0.8 2.9-1.3 5.5-0.5 2.8-0.7 3.5-0.2 0.4-0.3 0.5-0.1 0.1-0.3 0.1zm-10.4-20q0.2 0 0.2-0.1 0 0-0.1 0 0-0.1-0.1-0.1 0 0-0.1 0-0.1 0-0.2 0.1 0 0 0 0 0 0.1 0.3 0.1zm1.3-1q0.5 0 0.5-0.1 0 0-0.5 0-0.5 0-0.5 0 0 0.1 0.5 0.1zm1.5-0.2q0.3 0 0.3 0 0-0.1-0.2-0.1-0.1 0-0.2 0-0.1 0-0.1 0.1 0 0 0.2 0zm14.6-5.3q0.3 0 1.5-0.5l0.7-0.3q-1.4 0.3-1.8 0.4-0.5 0.2-0.5 0.3 0 0.1 0.1 0.1zm-3.8-0.5q0.1-0.2 0.8-2.3 1.2-4.2 3.6-10.8 2.4-6.5 3.9-10 0.6-1.3 1.5-3.4 1-2.1 1.2-2.1 0.2 0 0.9-1.5 0.8-1.6 1-1.6 0 0 0 0 0 0.3-0.8 1.9-0.8 1.6-1.2 2.6-0.4 1.1-0.4 1.4 0 0 0 0.1 0.1 0 0.6-0.9 0.3-0.6 0.4-0.6 0 0.1-1.8 4.5-1.6 4-1.6 4.2 0.1 0 0.7-1.5 1-2.5 2.2-5.2 1.4-3.1 1.5-3.1 0 0.2-1.4 3.5-1.5 3.5-2.9 7.9-1.5 4.4-1.9 6.4 0 0.2 0 0.4 0 0.1 0.1 0.1 0 0 0.1 0 0.1-0.1 0.2-0.1 0 0-0.2 0.2-0.1 0.2-0.1 0.3 0 0.1 0 0.2 0 0 0 0 0 0.1-0.1 0.1-0.1 0-0.1 0.1-0.1 0.1-0.1 0.3 0 0.4-0.2 1.1-0.3 0.8-1 3.9-0.7 2.8-0.7 3.2 0 0 0 0 0 0 0.1 0 0.4 0 2.9-0.8 2.7-1 6.2-2.3 3.4-1.3 5.8-2.5 6.7-3 12.2-6.8 5.5-3.9 9.2-7.8 3.7-4 4.7-7.5 0.3-1 0.3-1.8 0-2.3-2.2-3.7-1.8-1.3-4.4-1.8-2.7-0.5-6.9-0.5h-0.6q-3 0-5.3 0.2-2.5 0.2-6.3 0.8-9.3 1.4-19.2 4.1-9.9 2.7-18.2 5.9-10.5 4.1-15.3 8-1.8 1.4-1.8 1.7 0 0.1 0.1 0.1 0.2 0 3.3-0.8 4.6-1.2 7.4-1.6 2.8-0.5 5.3-0.5h0.6q7.5 0 11.8 4.2 4.5 4.2 5.7 12.6 0.2 1.5 0.4 1.5zm6.7-11.1q0 0 0-0.1 0-0.2 0.3-0.6 0.1-0.3 0.2-0.3 0 0 0 0.1 0 0-0.1 0.3 0 0.2-0.1 0.4-0.2 0.1-0.2 0.2 0 0-0.1 0zm-0.3 10.8q0.1 0 0.2 0 0.1-0.1 0.1-0.2 0-0.1-0.2-0.1 0 0-0.1 0.1-0.2 0-0.2 0.1-0.1 0-0.1 0.1 0 0 0.3 0zm-39.9-17.4q0.2 0 0.9-0.5 0.8-0.6 0.8-0.7l-0.1-0.1q-0.1 0-0.8 0.6-0.8 0.5-0.8 0.7 0 0 0 0zm2.4-1.7q0.1 0 0.8-0.4 3.5-2 4.5-2.5 0.9-0.5 0.9-0.6-0.4 0-3 1.5-2.9 1.6-3.2 1.9 0 0.1 0 0.1 0 0 0 0zm7.7-4.1q0.1 0 0.3-0.1 0.1 0 0.3-0.1 0.1-0.1 0.1-0.2 0 0-0.1 0 0 0-0.2 0.1-0.1 0-0.3 0.1-0.1 0.1-0.1 0.2 0 0 0 0zm1-0.4q0 0 0.2-0.1 0.1-0.1 0.2-0.1 0-0.1 0-0.1 0-0.1 0-0.1-0.1 0-0.1 0.1-0.1 0-0.2 0.1-0.2 0.1-0.2 0.1 0 0.1 0.1 0.1zm1.4-0.6q0.3 0 0.6-0.3 0.3-0.2 0.3-0.2-0.1 0-0.3 0.1-0.4 0.2-0.7 0.3-0.2 0-0.2 0.1 0 0 0.3 0zm2-0.8q0.2 0 0.5-0.2 0.2-0.1 0.2-0.1 0-0.1-0.2-0.1-0.2 0-0.3 0.1-0.3 0.1-0.3 0.3 0 0 0.1 0zm17.4-5.7q0.1 0 0.3 0 0.2-0.1 0.3-0.2 0.1-0.1 0.1-0.1 0-0.1 0-0.1-0.2 0-0.6 0.2-0.2 0.1-0.2 0.2 0 0 0.1 0zm1.4-0.4q0.3 0 1.6-0.4 1-0.2 1-0.3 0 0-0.1 0-0.4 0-1.8 0.4-0.7 0.2-0.7 0.3 0 0 0 0zm4.8-1.2q0.1 0 0.3 0 0.2-0.1 1.2-0.3 0.9-0.2 2.1-0.5 1.2-0.2 1.9-0.5 0.8-0.2 0.8-0.2-0.4 0-3 0.6-3.3 0.7-3.3 0.9 0 0 0 0zm6.8-1.6h0.1q0.3 0 1-0.1 0.4-0.1 0.4-0.2 0 0-0.2 0-0.6 0-1.1 0.2-0.3 0.1-0.3 0.1 0 0 0.1 0zm2.2-0.4q0.2 0 0.2 0 0-0.1-0.2-0.1-0.3 0-0.3 0.1 0 0 0.3 0zm1.1-0.2q0.3 0 0.3 0 0-0.1-0.3-0.1-0.3 0-0.3 0.1 0 0 0.3 0zm-40.6 38.5q-0.1 0-0.4-0.5l-0.4-0.4q0.9 0.7 0.9 0.8 0 0.1-0.1 0.1zm17.2-0.6q-0.3 0-0.3-0.1 0 0 0.1 0 0.1-0.1 0.1-0.1 0.2 0 0.3 0.1 0 0.1-0.2 0.1zm-30.4-20.7q0-0.1 0.3-0.5 0.4-0.7 0.7-0.9 0.1 0 0.1 0 0 0 0 0 0 0.1-0.4 0.6-0.7 0.8-0.7 0.8zm75.5 37.9q-0.9 0-1.6-0.4-0.7-0.5-1-1.1-0.5-0.7-0.7-2-0.2-1.2-0.2-2.5v-1.6q0-0.8 0-0.8-0.1 0-0.5 0.6-0.5 0.7-1.4 1.7-0.9 1-1.6 1.4-1.1 0.7-2 0.7-2 0-2.9-2.1-0.3-1-0.3-2.3 0-1.5 0.4-3.4 0.8-3.7 2.6-7.6 2.3-4.8 5.1-7.1 1.4-1.2 3-1.2 1.2 0 2.5 0.7 1.1 0.7 1.1 0.9 0 0.1-0.1 0.1-0.1 0-0.3-0.2h-0.1q0 0 0.4 0.5 0.6 0.6 0.6 0.8 0 0-0.1 0-0.1 0-0.7-0.6-0.7-0.7-0.9-0.7-0.3 0-0.3 0.2 0 0.1 0.5 0.5l0.4 0.4-0.6-0.4q-1.2-0.8-2.2-0.8-0.3 0-0.5 0.1-0.2 0.1-0.2 0.1 0 0.1 0.6 0.1 1.5 0.1 2.2 1 0.1 0.1 0.1 0.1 0 0-0.4-0.2-0.8-0.6-1.6-0.6-0.3 0-0.7 0.1-0.4 0.1-0.8 0.5-0.4 0.4-0.6 0.7-0.2 0.4-0.2 0.6v0.1q0 0.1 0 0.2 0 0.1-0.1 0.1-0.1 0-0.5 1.3-0.2 0.5-0.2 1-0.1 0.4-1.1 2.3-1.1 2.3-2 5-0.4 1.2-0.4 1.6 0 0.5 0.3 0.5 0.5 0 1.6-2.2 0.6-1.2 2.2-5 0.7-1.5 1.2-2.7 0.6-1.1 0.8-1.4 0.4-0.4 1.2-0.4h0.2q1.3 0 1.6 1 0.2 0.5 0.2 1.5 0 1-0.2 2.5-1 9.1-1 11.7 0 0.9 0.2 1.1 0.2 0 0.9-0.8 0.7-0.9 1.5-2.1 0.8-1.2 1.2-2.1 0.4-0.9 1.1-1.9 0.6-1 1.3-2.6 0.7-1.5 0.9-1.5 0 0.2-0.3 0.6-0.3 0.7-0.3 0.8 0 0 0 0 0.2 0 0.7-1 0.2-0.5 0.4-1 0.5-1.3 0.9-1.8 0.1-0.2 0.1-0.2 0.1 0 0.1 0.1 0 0.2-0.7 2.3-0.7 2-0.9 2.5-0.1 0.2-0.1 0.3 0 0 0 0 0.1 0 0.9-1.7 0.7-1.4 0.9-1.4 0.1 0 0.1 0.3 0 0.5-0.3 1.4-0.3 0.8-0.3 1.1 0 0.1 0 0.1 0.1 0 0.1 0 0.1-0.1 0.1-0.1 0.1 0 0.1 0.2 0 0.3-0.5 1.7-0.7 2.2-1.1 3-0.2 0.3-0.2 0.4 0 0.1 0.1 0.1 0.1-0.1 0.3-0.5 0.3-0.3 0.5-0.8 0.2-0.5 0.5-0.9 0.3-0.5 0.5-0.8 0.2-0.3 0.4-0.6l-0.1 0.6q-0.2 0.6-0.7 1.8-0.6 1.3-1.4 2.7-0.7 1.3-1.4 2.3-2.5 3.7-4.3 4.6-1.1 0.5-2 0.5zm8.9 43.7v-0.1q0 0 0.3-0.5 1.2-2 1.9-3.2 1.8-3.5 1.9-4-0.1 0-0.7 1.1-2.3 4.1-2.6 4.1 0 0 0 0 0-0.1 0.1-0.3 0.2-0.3 0.2-0.5v-0.1q0-0.3 0.8-2 0.8-1.6 0.8-1.9 0-0.1 0-0.1-0.1 0-0.4 0.3 0 0 0-0.1 0-0.4 1-2.8 0.3-0.8 1.1-3.1 0.7-1.9 0.7-2.2-0.1 0-0.7 1.4-0.4 0.9-0.8 1.8-0.4 0.9-0.8 1.5-0.3 0.6-0.4 0.6 0-0.1 0.5-1.5 0.4-1.4 1.2-3.5 2.2-5.9 3.4-9.9 1.3-4.1 2.2-8.3 1.4-6.4 2.2-16.2 0.1-1.6 0.1-4.5 0-5.3-0.2-6.6l-0.2-0.9-0.7 2.3q-3.9 11.6-6.5 15-1.4 1.7-2.4 2-1.1 0.3-1.6 0.3-0.9 0-1.7-0.5-1.2-0.7-1.9-2.6-0.3-1.1-0.3-3.5 0-2.7 0.4-4.6 0.8-4.4 2.2-7.5 1.4-3.4 3-5.7 1.7-2.3 4.2-4.4 1.5-1.3 1.7-1.3 0 0 0 0 0 0.1-0.4 0.5-0.2 0.2-0.2 0.3 0.1 0 0.8-0.5 0.9-0.7 1.1-0.7 0 0 0 0 0 0.2-0.8 0.7-1.2 0.9-1.2 1.3 0 0.1 0.1 0.1 0.2 0 0.4-0.3 0.2-0.2 0.3-0.2 0 0 0.1 0 0 0.1-0.3 0.4-0.3 0.3-0.8 0.8-0.5 0.4-1 0.9-0.4 0.6-0.7 0.9-0.2 0.3-0.2 0.3 0.1 0 1.1-0.9 2.4-2.3 2.5-2.3v0.1q0 0-1.7 1.9-1.7 1.7-2 2.3l-0.7 1.3q-0.2 0.5-0.2 0.9 0 0 0 0 0 0.1 0 0.2 0 0.2-0.2 0.6-0.2 0.3-0.2 0.4 0 0 0 0 0 0 0 0.1 0 0.1-0.4 1.3-0.4 1.2-0.4 1.6v0.2q0 0.4-0.3 1.1-0.3 0.9-0.8 2.6-0.5 1.7-0.8 2.8-0.3 1.5-0.4 3.8-0.1 0.8-0.1 1.1 0 1.1 0.4 1.1 0.2 0 0.6-0.4 1.6-1.5 5.6-13.8 1.2-3.5 1.9-5.5 0.7-1.9 1.2-2.8 0.6-0.9 1.1-1.3 0.8-0.6 1-0.7 0.3 0 0.3 0 0.5 0 0.9 0.4 0.8 0.7 1.3 2.7 0.5 2 1 5.9 0.3 2.5 0.3 7.3 0 6-0.4 10.1-0.7 7.6-1.9 12.9-0.5 2.2-0.6 2.7-0.5 2-1.8 7.1-0.4 1.2-1 2.6-1 2.6-2.3 6.4-0.5 1.5-2 4.4-1.6 2.9-1.8 2.9 0 0-0.1 0 0 0 0 0 0 0 0 0.1 0.1 0 0.1 0.1 0 0.2-0.3 0.9-0.3 0.8-0.5 0.8 0 0 0 0 0-0.2 0.2-0.6 0.3-0.5 0.3-0.7h-0.1q-0.1 0-1.4 2.2-1.2 2.1-2 3-0.5 0.6-0.6 0.6zm12.5-51.8q0 0 0-0.7 0-0.8 0-0.8-0.1 0-0.1 0.8 0 0.7 0.1 0.7zm0.2-2.2q0 0 0-0.6 0-0.4-0.1-0.4-0.1 0-0.1 0.2l-0.1 0.2q0 0.1 0.1 0.2 0.1 0.4 0.2 0.4zm-0.1-1.3q0.1 0 0.1-0.2 0-0.1 0-0.2-0.1-0.1-0.1-0.1 0 0 0 0.2 0 0.3 0 0.3zm0.1-1.4q0 0 0-0.6 0-0.5-0.1-0.5-0.1 0-0.1 0.4 0 0.3 0.1 0.6 0 0.1 0.1 0.1zm-1.3-6.3q0.1 0 0.2-0.3 0.2-0.2 0.4-0.2 0.1 0 0.1 0 0.1 0.1 0.2 0.1 0 0 0-0.1 0 0 0-0.2-0.1-0.1-0.1-0.2-0.1-0.2-0.1-0.3 0-0.2 0-0.2-0.3 0-0.5 0.7-0.2 0.5-0.2 0.7 0 0 0 0zm-8.2 59.3q-0.1 0-0.1-0.2 0-0.1 0.1-0.2 0-0.1 0.1-0.1 0 0 0.1 0 0 0 0 0 0 0.1 0 0.2-0.2 0.3-0.2 0.3zm16.9-38.3q-0.5 0-0.9-0.1-2.1-0.6-2.6-2.3-0.5-1.6-0.5-3 0-1.6 0.4-3.7 0.8-4.9 3.1-10.9 2.9-7.7 6.2-11 1.7-1.8 3.5-1.8h0.3q1.9 0 3.1 1.8 0.7 1.2 0.7 2.7 0 2.5-1.8 5.5-1.4 2.3-3.8 4.4-0.6 0.5-1.6 1.1-1 0.6-2 1.1-0.9 0.4-1.2 0.4-0.4 0-0.9 1.6-0.5 1.5-0.9 3.6-0.9 3.6-0.9 5.1 0 0.6 0.2 0.8 0.2 0.3 0.5 0.3 0.2 0 1-0.7 2.2-1.8 3.4-3.3 1.5-2 2.6-3.3 0.4-0.4 1.2-1.5 0.5-0.9 2-3l0.9-1.2q1.2-1.7 1.3-1.7 0 0-0.3 0.5-0.4 0.7-0.4 0.8 0.1 0 1-1.4 1.1-1.7 1.3-1.7 0.1 0 0.1 0 0 0 0 0 0 0.4-1.5 3.1-0.3 0.6-0.4 0.7-0.1 0.2-0.1 0.3 0 0.1 0 0.1 0 0 0.3-0.3 0.2-0.3 0.5-0.8 0.3-0.5 0.6-0.9 0.3-0.4 0.4-0.5 0.1-0.1 0.2-0.1 0 0 0 0.2 0 0.4-0.5 1.4-0.3 0.6-0.3 0.9 0 0.1 0.1 0.2 0.1 0 0.1 0.1 0 0.5-1.2 3-0.3 0.6-0.5 0.9-0.3 0.6-0.3 0.7 0 0 0 0 0.1 0 0.9-1.2 1.1-1.5 1.3-1.5 0 0 0 0.1 0 0.5-1.4 2.8-1.7 2.7-4.1 5.5-2.4 2.8-4.3 4.3-2.6 1.9-4.8 1.9zm-3.3-7.8v0.1q0 0 0.3-1.3 0.1-0.7 0.1-0.8 0-0.1 0-0.1 0 0-0.1 0.2-0.1 0.1-0.1 0.5-0.1 0.3-0.2 0.7 0 0.6 0 0.7zm0.5-2.6q0 0 0.1-0.3 0.2-0.3 0.2-0.6 0-0.1-0.1-0.1 0 0-0.1 0.2-0.2 0.3-0.2 0.6 0 0.2 0.1 0.2zm5.8-6.1q0 0 0.1 0 0.1-0.1 0.2-0.3 0.1-0.1 0.1-0.2 0 0-0.2 0-0.1 0-0.2 0.1-0.1 0-0.1 0.2 0 0.2 0.1 0.2zm-3.8-0.5q0.1 0 0.4-0.9 0.2-0.6 0.2-0.9 0 0 0 0-0.1 0-0.4 0.7-0.2 0.7-0.2 0.9 0 0.2 0 0.2zm3.9-0.4q0.2 0 0.8-0.2 0.7-0.4 0.9-0.6 0-0.1-0.1-0.1-0.1 0-0.7 0.3-0.4 0.2-0.6 0.4-0.3 0.2-0.3 0.2 0 0 0 0zm0.3-0.6q0.1 0 0.5-0.2 0 0 0 0 0.3-0.2 0.3-0.4 0 0-0.1-0.1 0 0 0-0.1 0 0 0 0 0.1 0 0.1 0 0 0.1 0.1 0.1 0.2 0 0.4-0.2 0.4-0.4 1-1.2 0.2-0.4 0.2-0.5 0-0.3 0.4-1.2 0.5-1 0.5-1.2 0-0.1 0.3-0.6 0.3-0.5 0.7-1.1 0.9-1.5 0.9-2.3 0-0.3-0.2-0.4h-0.1q-0.4 0-1.1 0.9-0.7 1.1-1.6 2.8-1 1.7-1.7 3.7-0.7 1.6-0.7 1.9 0 0.1 0.1 0.1z"/>
</svg>